# xmcd
#
# Track frame offsets: 
#        150
#        14752
#        28416
#        41920
#        49145
#        65619
#        70908
#        79405
#        81466
#        94071
#        103228
#        115653
#        119564
#        133181
#        148960
#        163033
#        179360
#        191672
#        192863
#        197464
#        209547
#        221653
#        234064
#        235637
#        258848
#        265685
#        287582
#        310848
#        320107
#        328313
#
# Disc length: 4444 seconds
#
# Revision: 0
# Processed by: cddbd v1.5.2PL0 Copyright (c) Steve Scherf et al.
# Submitted via: ExactAudioCopy v0.99pb5
#
DISCID=d6115a1e
DTITLE=The Beatles  - Contemporary Sound - Complete Revisionist Remixe
DTITLE=s D 4
DYEAR=1900
DGENRE=
TTITLE0=Penny Lane (ant 2)
TTITLE1=Penny Lane (ant laser-vhs)
TTITLE2=Penny Lane (ant dvd)
TTITLE3=Strawberry Fields Forever (imagine laser)
TTITLE4=Strawberry Fields Forever (ant dvd)
TTITLE5=Strawberry Fields Forever (LOVE)
TTITLE6=Sgt Pepper Lonely Hearts Club Band (ysrmm)
TTITLE7=With a Little Help From My Friends (ysrmm)
TTITLE8=Sgt Pepper Lonely Hearts Club Band (yss dledin)
TTITLE9=With a Little Help From My Friends (yss dledin)
TTITLE10=Sgt Pepper Lonely Hearts Club Band (rockband)
TTITLE11=With a Little Help From My Friends (rockband)
TTITLE12=Lucy in the Sky With Diamonds (imagine laser)
TTITLE13=Lucy in the Sky With Diamonds (ysrmm)
TTITLE14=Lucy in the Sky With Diamonds (yss dledin)
TTITLE15=Lucy in the Sky With Diamonds (LOVE)
TTITLE16=Lucy in the Sky with Diamonds (rockband)
TTITLE17=Getting Better (rockband)
TTITLE18=She_s Leaving Home (love-atn)
TTITLE19=Being For the Benefit of Mr Kite (ant dvd)
TTITLE20=Being For the Benefit of Mr. Kite (LOVE)
TTITLE21=When I_m Sixty-Four (ysrmm)
TTITLE22=When I_m Sixty-Four (yss dledin)
TTITLE23=Good Morning Good Morning (rockband)
TTITLE24=Sgt Pepper Reprise (ant dvd)
TTITLE25=Sgt Pepper Reprise (LOVE)
TTITLE26=A Day in the Life (1988 imagine cd)
TTITLE27=A Day in the Life (imagine laser)
TTITLE28=A Day in the Life (ant dvd)
TTITLE29=A Day in the Life (LOVE)
EXTD=
EXTT0=
EXTT1=
EXTT2=
EXTT3=
EXTT4=
EXTT5=
EXTT6=
EXTT7=
EXTT8=
EXTT9=
EXTT10=
EXTT11=
EXTT12=
EXTT13=
EXTT14=
EXTT15=
EXTT16=
EXTT17=
EXTT18=
EXTT19=
EXTT20=
EXTT21=
EXTT22=
EXTT23=
EXTT24=
EXTT25=
EXTT26=
EXTT27=
EXTT28=
EXTT29=
PLAYORDER=
